<?xml version="1.0" encoding="UTF-8"?>
<svg version="1.1" xmlns="http://www.w3.org/2000/svg" width="291" height="291">
<path d="M0 0 C17.70747922 15.11147532 28.32140514 36.84816871 30.40625 59.91015625 C32.30667866 89.48881251 22.25836883 117.22574854 3.08203125 139.625 C-22.89782647 168.95709742 -58.45521452 186.49179466 -97.6875 189.1171875 C-111.19807946 189.71424594 -124.38853974 188.84726341 -137.59375 185.91015625 C-138.29483887 185.75450195 -138.99592773 185.59884766 -139.71826172 185.43847656 C-175.65158833 177.02801329 -203.91924483 153.37984872 -223.59375 122.91015625 C-229.59375 112.79904514 -229.59375 112.79904514 -229.59375 109.91015625 C-225.77286346 111.46486181 -223.57412968 113.85743024 -220.78125 116.84765625 C-198.84838748 139.4090962 -167.50696426 152.36374958 -136.18481445 153.25927734 C-119.68380482 153.42815897 -104.08651997 150.46353881 -88.59375 144.91015625 C-87.57152344 144.55308594 -86.54929688 144.19601563 -85.49609375 143.828125 C-63.65733987 135.50999936 -45.92277921 120.03858165 -35.84375 98.89453125 C-28.99169939 82.53526042 -28.74547801 64.21182555 -34.8125 47.56640625 C-40.50799556 35.28944916 -49.2383591 26.41568914 -61.9296875 21.66015625 C-81.1662843 15.75382376 -100.16662822 18.52587258 -117.86230469 27.63696289 C-128.28558273 33.28827754 -140.29236723 41.36838567 -147.18359375 51.171875 C-147.64894531 51.74550781 -148.11429687 52.31914062 -148.59375 52.91015625 C-149.58375 52.91015625 -150.57375 52.91015625 -151.59375 52.91015625 C-152.52921808 35.44808534 -147.1362775 17.25861504 -135.55078125 4.01171875 C-134.90496094 3.31820312 -134.25914062 2.6246875 -133.59375 1.91015625 C-133.04074219 1.27851562 -132.48773438 0.646875 -131.91796875 -0.00390625 C-97.92603168 -36.83526528 -35.44087661 -28.55552558 0 0 Z " fill="#FB2966" transform="translate(249.59375,92.08984375)"/>
<path d="M0 0 C0.70108887 0.1556543 1.40217773 0.31130859 2.12451172 0.47167969 C38.05783833 8.88214296 66.32549483 32.53030753 86 63 C92 73.11111111 92 73.11111111 92 76 C88.17911346 74.44529444 85.98037968 72.05272601 83.1875 69.0625 C61.25463748 46.50106005 29.91321426 33.54640667 -1.40893555 32.65087891 C-17.90994518 32.48199728 -33.50723003 35.44661744 -49 41 C-50.02222656 41.35707031 -51.04445313 41.71414062 -52.09765625 42.08203125 C-73.93641013 50.40015689 -91.67097079 65.8715746 -101.75 87.015625 C-108.60205061 103.37489583 -108.84827199 121.6983307 -102.78125 138.34375 C-97.08575444 150.62070709 -88.3553909 159.49446711 -75.6640625 164.25 C-56.4274657 170.15633249 -37.42712178 167.38428367 -19.73144531 158.27319336 C-9.30816727 152.62187871 2.69861723 144.54177058 9.58984375 134.73828125 C10.05519531 134.16464844 10.52054688 133.59101563 11 133 C11.99 133 12.98 133 14 133 C14.93546808 150.46207091 9.5425275 168.65154121 -2.04296875 181.8984375 C-3.01169922 182.93871094 -3.01169922 182.93871094 -4 184 C-4.55300781 184.63164062 -5.10601562 185.26328125 -5.67578125 185.9140625 C-21.32742519 202.873123 -46.25593559 208.76769127 -68.38671875 210.22265625 C-96.50774361 210.97385668 -122.04503302 200.51402002 -142.59375 181.4609375 C-160.02741196 163.63105595 -168.41671885 140.30702727 -168.30249023 115.58349609 C-167.51636536 82.85876294 -151.53258121 56.27229099 -128.83447266 33.74682617 C-95.52468836 2.0284995 -44.32581003 -9.85896109 0 0 Z " fill="#FB2966" transform="translate(179,10)"/>
</svg>
